<?xml version="1.0" encoding="utf-8"?>
<!-- Generator: Adobe Illustrator 27.0.0, SVG Export Plug-In . SVG Version: 6.00 Build 0)  -->
<svg version="1.1" id="Layer_1" xmlns="http://www.w3.org/2000/svg" xmlns:xlink="http://www.w3.org/1999/xlink" x="0px" y="0px"
	 viewBox="0 0 485.42 131.58" style="enable-background:new 0 0 485.42 131.58;" xml:space="preserve">
<style type="text/css">
	.st0{fill:url(#SVGID_1_);}
	.st1{fill:url(#SVGID_00000173162688427447544420000014541181199534588090_);}
	.st2{fill:url(#SVGID_00000017474307650838612440000015856359149324863124_);}
	.st3{fill:url(#SVGID_00000113332831158874254140000014619293346812258455_);}
	.st4{fill:url(#SVGID_00000134239631628814060870000011849569427562032795_);}
	.st5{fill:url(#SVGID_00000112596038881436690340000013749762127881141130_);}
	.st6{fill:url(#SVGID_00000179641042689168385160000004687484348263561898_);}
	.st7{fill:url(#SVGID_00000024000505835414334530000001547144186054451611_);}
	.st8{fill:url(#SVGID_00000058582838205628541130000007352852263034352543_);}
	.st9{fill:url(#SVGID_00000173856972704820069650000010071950219929189813_);}
	.st10{fill:url(#SVGID_00000176005117808987008310000011306544298578492310_);}
	.st11{fill:url(#SVGID_00000123427572845834144400000007793582025944621450_);}
	.st12{fill:url(#SVGID_00000091015136308170047540000009023509618692991935_);}
	.st13{fill:url(#SVGID_00000048487858150772665870000008294286664412711350_);}
	.st14{fill:url(#SVGID_00000010305959694876361710000002244239351795190701_);}
	.st15{fill:url(#SVGID_00000054968079512361044580000001439813571189805756_);}
	.st16{fill:url(#SVGID_00000018922284542541289640000005944770247252863417_);}
	.st17{fill:url(#SVGID_00000179623656197299462280000016210828826742412939_);}
	.st18{fill:url(#SVGID_00000108274192572808820250000007504378048705820586_);}
	.st19{fill:url(#SVGID_00000073718393156563253830000006754390001639978918_);}
	.st20{fill:url(#SVGID_00000130624387531966385950000005805066892664503193_);}
	.st21{fill:url(#SVGID_00000163754159309646012590000014923717295939889800_);}
	.st22{fill:url(#SVGID_00000163753915886177961950000016182714871774445744_);}
	.st23{fill:url(#SVGID_00000009582402147106643210000002934178562921867139_);}
	.st24{fill:url(#SVGID_00000147912590712141151910000007482891840631967408_);}
	.st25{fill:url(#SVGID_00000010311746877899518090000001800035569754780806_);}
	.st26{fill:url(#SVGID_00000033353740736493028010000006148205407994630806_);}
	.st27{fill:url(#SVGID_00000109742893736856604310000004071595732552750261_);}
	.st28{fill:url(#SVGID_00000038401108347612290800000001701514192914354870_);}
	.st29{fill:url(#SVGID_00000160890627261041791800000009516340107438113675_);}
	.st30{fill:url(#SVGID_00000027580815469518740030000016345033456138546594_);}
	.st31{fill:url(#SVGID_00000183941269066223009400000003191230984313390768_);}
	.st32{fill:url(#SVGID_00000147217873140830727450000012734103755126802338_);}
	.st33{fill:url(#SVGID_00000147202868555352311660000004417407388184083643_);}
	.st34{fill:url(#SVGID_00000065045579232852007710000013869780159529845635_);}
	.st35{fill:url(#SVGID_00000069386659987395155390000016138034997209481134_);}
</style>
<g>
	<g>
		<g>
			<linearGradient id="SVGID_1_" gradientUnits="userSpaceOnUse" x1="135.3933" y1="43.8781" x2="135.3933" y2="86.8757">
				<stop  offset="0" style="stop-color:#2D9AF7"/>
				<stop  offset="0.0874" style="stop-color:#31A3F5"/>
				<stop  offset="0.2276" style="stop-color:#3CBAEF"/>
				<stop  offset="0.4022" style="stop-color:#4FE0E5"/>
				<stop  offset="0.5053" style="stop-color:#5BFADE"/>
				<stop  offset="0.6521" style="stop-color:#48D3E8"/>
				<stop  offset="0.7948" style="stop-color:#39B4F0"/>
				<stop  offset="0.9157" style="stop-color:#30A1F5"/>
				<stop  offset="1" style="stop-color:#2D9AF7"/>
			</linearGradient>
			<path class="st0" d="M152.55,44.28v38.61h-5.9l-21.29-26.14v26.14h-7.12V44.28h5.9l21.29,26.14V44.28H152.55z"/>
			
				<linearGradient id="SVGID_00000121240059558149995850000015753334029436227253_" gradientUnits="userSpaceOnUse" x1="186.7719" y1="43.8781" x2="186.7719" y2="86.8757">
				<stop  offset="0" style="stop-color:#2D9AF7"/>
				<stop  offset="0.0874" style="stop-color:#31A3F5"/>
				<stop  offset="0.2276" style="stop-color:#3CBAEF"/>
				<stop  offset="0.4022" style="stop-color:#4FE0E5"/>
				<stop  offset="0.5053" style="stop-color:#5BFADE"/>
				<stop  offset="0.6521" style="stop-color:#48D3E8"/>
				<stop  offset="0.7948" style="stop-color:#39B4F0"/>
				<stop  offset="0.9157" style="stop-color:#30A1F5"/>
				<stop  offset="1" style="stop-color:#2D9AF7"/>
			</linearGradient>
			<path style="fill:url(#SVGID_00000121240059558149995850000015753334029436227253_);" d="M196.7,56.22
				c2.3,2.08,3.45,5.21,3.45,9.4v17.26h-6.51V79.3c-0.85,1.29-2.05,2.27-3.61,2.95c-1.56,0.68-3.45,1.02-5.65,1.02
				c-2.21,0-4.14-0.38-5.79-1.13c-1.65-0.75-2.93-1.8-3.83-3.14c-0.9-1.34-1.35-2.86-1.35-4.55c0-2.65,0.98-4.77,2.95-6.37
				c1.97-1.6,5.06-2.4,9.29-2.4h7.61v-0.44c0-2.06-0.62-3.64-1.85-4.74c-1.23-1.1-3.06-1.65-5.49-1.65c-1.65,0-3.28,0.26-4.88,0.77
				c-1.6,0.51-2.95,1.23-4.05,2.15l-2.7-5.02c1.54-1.18,3.4-2.08,5.57-2.7c2.17-0.62,4.47-0.94,6.89-0.94
				C191.08,53.1,194.4,54.14,196.7,56.22z M190.41,77.07c1.34-0.79,2.29-1.92,2.84-3.39v-3.42h-7.11c-3.97,0-5.96,1.31-5.96,3.92
				c0,1.25,0.5,2.24,1.49,2.98c0.99,0.74,2.37,1.1,4.14,1.1C187.53,78.25,189.07,77.86,190.41,77.07z"/>
			
				<linearGradient id="SVGID_00000078754649107026677050000005572304164004683408_" gradientUnits="userSpaceOnUse" x1="233.4901" y1="43.8781" x2="233.4901" y2="86.8757">
				<stop  offset="0" style="stop-color:#2D9AF7"/>
				<stop  offset="0.0874" style="stop-color:#31A3F5"/>
				<stop  offset="0.2276" style="stop-color:#3CBAEF"/>
				<stop  offset="0.4022" style="stop-color:#4FE0E5"/>
				<stop  offset="0.5053" style="stop-color:#5BFADE"/>
				<stop  offset="0.6521" style="stop-color:#48D3E8"/>
				<stop  offset="0.7948" style="stop-color:#39B4F0"/>
				<stop  offset="0.9157" style="stop-color:#30A1F5"/>
				<stop  offset="1" style="stop-color:#2D9AF7"/>
			</linearGradient>
			<path style="fill:url(#SVGID_00000078754649107026677050000005572304164004683408_);" d="M243.42,56.22
				c2.3,2.08,3.45,5.21,3.45,9.4v17.26h-6.51V79.3c-0.85,1.29-2.05,2.27-3.61,2.95c-1.56,0.68-3.45,1.02-5.65,1.02
				c-2.21,0-4.14-0.38-5.79-1.13c-1.65-0.75-2.93-1.8-3.83-3.14c-0.9-1.34-1.35-2.86-1.35-4.55c0-2.65,0.98-4.77,2.95-6.37
				c1.97-1.6,5.06-2.4,9.29-2.4h7.61v-0.44c0-2.06-0.62-3.64-1.85-4.74c-1.23-1.1-3.06-1.65-5.49-1.65c-1.65,0-3.28,0.26-4.88,0.77
				c-1.6,0.51-2.95,1.23-4.05,2.15l-2.7-5.02c1.54-1.18,3.4-2.08,5.57-2.7c2.17-0.62,4.47-0.94,6.89-0.94
				C237.8,53.1,241.12,54.14,243.42,56.22z M237.13,77.07c1.34-0.79,2.29-1.92,2.84-3.39v-3.42h-7.11c-3.97,0-5.96,1.31-5.96,3.92
				c0,1.25,0.5,2.24,1.49,2.98c0.99,0.74,2.37,1.1,4.14,1.1C234.25,78.25,235.79,77.86,237.13,77.07z"/>
			
				<linearGradient id="SVGID_00000020377070937556680180000003748260949038941115_" gradientUnits="userSpaceOnUse" x1="279.7657" y1="43.8781" x2="279.7657" y2="86.8757">
				<stop  offset="0" style="stop-color:#2D9AF7"/>
				<stop  offset="0.0874" style="stop-color:#31A3F5"/>
				<stop  offset="0.2276" style="stop-color:#3CBAEF"/>
				<stop  offset="0.4022" style="stop-color:#4FE0E5"/>
				<stop  offset="0.5053" style="stop-color:#5BFADE"/>
				<stop  offset="0.6521" style="stop-color:#48D3E8"/>
				<stop  offset="0.7948" style="stop-color:#39B4F0"/>
				<stop  offset="0.9157" style="stop-color:#30A1F5"/>
				<stop  offset="1" style="stop-color:#2D9AF7"/>
			</linearGradient>
			<path style="fill:url(#SVGID_00000020377070937556680180000003748260949038941115_);" d="M295.95,53.43l-12.63,29.45h-7.12
				l-12.63-29.45h7.17l9.16,21.84l9.43-21.84H295.95z"/>
			
				<linearGradient id="SVGID_00000007430259773211588040000007527048502258188222_" gradientUnits="userSpaceOnUse" x1="317.7404" y1="43.8781" x2="317.7404" y2="86.8757">
				<stop  offset="0" style="stop-color:#2D9AF7"/>
				<stop  offset="0.0874" style="stop-color:#31A3F5"/>
				<stop  offset="0.2276" style="stop-color:#3CBAEF"/>
				<stop  offset="0.4022" style="stop-color:#4FE0E5"/>
				<stop  offset="0.5053" style="stop-color:#5BFADE"/>
				<stop  offset="0.6521" style="stop-color:#48D3E8"/>
				<stop  offset="0.7948" style="stop-color:#39B4F0"/>
				<stop  offset="0.9157" style="stop-color:#30A1F5"/>
				<stop  offset="1" style="stop-color:#2D9AF7"/>
			</linearGradient>
			<path style="fill:url(#SVGID_00000007430259773211588040000007527048502258188222_);" d="M314.16,44.28h7.17v38.61h-7.17V44.28z"
				/>
			
				<linearGradient id="SVGID_00000135674735013986466380000015075560937427997350_" gradientUnits="userSpaceOnUse" x1="358.8318" y1="43.8781" x2="358.8318" y2="86.8757">
				<stop  offset="0" style="stop-color:#2D9AF7"/>
				<stop  offset="0.0874" style="stop-color:#31A3F5"/>
				<stop  offset="0.2276" style="stop-color:#3CBAEF"/>
				<stop  offset="0.4022" style="stop-color:#4FE0E5"/>
				<stop  offset="0.5053" style="stop-color:#5BFADE"/>
				<stop  offset="0.6521" style="stop-color:#48D3E8"/>
				<stop  offset="0.7948" style="stop-color:#39B4F0"/>
				<stop  offset="0.9157" style="stop-color:#30A1F5"/>
				<stop  offset="1" style="stop-color:#2D9AF7"/>
			</linearGradient>
			<path style="fill:url(#SVGID_00000135674735013986466380000015075560937427997350_);" d="M369.97,56.36
				c2.24,2.17,3.36,5.39,3.36,9.65v16.88h-6.9v-16c0-2.57-0.61-4.51-1.82-5.82c-1.21-1.3-2.94-1.96-5.18-1.96
				c-2.54,0-4.54,0.76-6.01,2.29c-1.47,1.53-2.21,3.72-2.21,6.59v14.89h-6.89V53.43h6.56v3.81c1.14-1.36,2.57-2.39,4.3-3.09
				c1.73-0.7,3.68-1.05,5.85-1.05C364.75,53.1,367.73,54.19,369.97,56.36z"/>
			
				<linearGradient id="SVGID_00000161631925590418883070000001399254058981103236_" gradientUnits="userSpaceOnUse" x1="402.2399" y1="43.8781" x2="402.2399" y2="86.8757">
				<stop  offset="0" style="stop-color:#2D9AF7"/>
				<stop  offset="0.0874" style="stop-color:#31A3F5"/>
				<stop  offset="0.2276" style="stop-color:#3CBAEF"/>
				<stop  offset="0.4022" style="stop-color:#4FE0E5"/>
				<stop  offset="0.5053" style="stop-color:#5BFADE"/>
				<stop  offset="0.6521" style="stop-color:#48D3E8"/>
				<stop  offset="0.7948" style="stop-color:#39B4F0"/>
				<stop  offset="0.9157" style="stop-color:#30A1F5"/>
				<stop  offset="1" style="stop-color:#2D9AF7"/>
			</linearGradient>
			<path style="fill:url(#SVGID_00000161631925590418883070000001399254058981103236_);" d="M413.05,81.29
				c-0.81,0.66-1.79,1.16-2.95,1.49c-1.16,0.33-2.38,0.5-3.67,0.5c-3.24,0-5.74-0.84-7.5-2.54c-1.77-1.69-2.65-4.15-2.65-7.39V59.17
				h-4.85v-5.52h4.85v-6.73h6.89v6.73h7.89v5.52h-7.89v14.01c0,1.43,0.35,2.53,1.05,3.28c0.7,0.75,1.71,1.13,3.03,1.13
				c1.55,0,2.83-0.4,3.86-1.21L413.05,81.29z"/>
			
				<linearGradient id="SVGID_00000071552708687763314600000002985784679986399131_" gradientUnits="userSpaceOnUse" x1="443.6085" y1="43.8781" x2="443.6085" y2="86.8757">
				<stop  offset="0" style="stop-color:#2D9AF7"/>
				<stop  offset="0.0874" style="stop-color:#31A3F5"/>
				<stop  offset="0.2276" style="stop-color:#3CBAEF"/>
				<stop  offset="0.4022" style="stop-color:#4FE0E5"/>
				<stop  offset="0.5053" style="stop-color:#5BFADE"/>
				<stop  offset="0.6521" style="stop-color:#48D3E8"/>
				<stop  offset="0.7948" style="stop-color:#39B4F0"/>
				<stop  offset="0.9157" style="stop-color:#30A1F5"/>
				<stop  offset="1" style="stop-color:#2D9AF7"/>
			</linearGradient>
			<path style="fill:url(#SVGID_00000071552708687763314600000002985784679986399131_);" d="M458.56,70.37h-23.11
				c0.4,2.17,1.46,3.89,3.17,5.16s3.83,1.9,6.37,1.9c3.24,0,5.9-1.07,8-3.2l3.7,4.25c-1.32,1.58-3,2.78-5.02,3.58
				c-2.02,0.81-4.3,1.21-6.84,1.21c-3.24,0-6.09-0.64-8.55-1.93c-2.46-1.29-4.37-3.08-5.71-5.38c-1.34-2.3-2.01-4.9-2.01-7.8
				c0-2.87,0.65-5.45,1.96-7.75c1.31-2.3,3.12-4.09,5.43-5.38c2.32-1.29,4.93-1.93,7.83-1.93c2.87,0,5.43,0.63,7.69,1.9
				c2.26,1.27,4.03,3.05,5.29,5.35c1.27,2.3,1.9,4.96,1.9,7.97C458.67,68.8,458.63,69.48,458.56,70.37z M438.18,60.58
				c-1.53,1.31-2.45,3.04-2.79,5.21h16.71c-0.29-2.13-1.19-3.86-2.7-5.18c-1.51-1.32-3.38-1.99-5.63-1.99
				C441.57,58.62,439.7,59.27,438.18,60.58z"/>
			
				<linearGradient id="SVGID_00000054952293606597947890000002561950057978431884_" gradientUnits="userSpaceOnUse" x1="481.969" y1="43.8781" x2="481.969" y2="86.8757">
				<stop  offset="0" style="stop-color:#2D9AF7"/>
				<stop  offset="0.0874" style="stop-color:#31A3F5"/>
				<stop  offset="0.2276" style="stop-color:#3CBAEF"/>
				<stop  offset="0.4022" style="stop-color:#4FE0E5"/>
				<stop  offset="0.5053" style="stop-color:#5BFADE"/>
				<stop  offset="0.6521" style="stop-color:#48D3E8"/>
				<stop  offset="0.7948" style="stop-color:#39B4F0"/>
				<stop  offset="0.9157" style="stop-color:#30A1F5"/>
				<stop  offset="1" style="stop-color:#2D9AF7"/>
			</linearGradient>
			<path style="fill:url(#SVGID_00000054952293606597947890000002561950057978431884_);" d="M478.52,41.96h6.89v40.93h-6.89V41.96z"
				/>
		</g>
		<g>
			
				<linearGradient id="SVGID_00000036935579787974336100000001998221639839951501_" gradientUnits="userSpaceOnUse" x1="124.1254" y1="95.875" x2="124.1254" y2="112.3393">
				<stop  offset="0" style="stop-color:#2D9AF7"/>
				<stop  offset="0.0874" style="stop-color:#31A3F5"/>
				<stop  offset="0.2276" style="stop-color:#3CBAEF"/>
				<stop  offset="0.4022" style="stop-color:#4FE0E5"/>
				<stop  offset="0.5053" style="stop-color:#5BFADE"/>
				<stop  offset="0.6521" style="stop-color:#48D3E8"/>
				<stop  offset="0.7948" style="stop-color:#39B4F0"/>
				<stop  offset="0.9157" style="stop-color:#30A1F5"/>
				<stop  offset="1" style="stop-color:#2D9AF7"/>
			</linearGradient>
			<path style="fill:url(#SVGID_00000036935579787974336100000001998221639839951501_);" d="M130.01,103.3
				c0.06,3.33-1.98,6.7-6.59,6.7c-1.62,0-3.56,0-5.18,0V96.82c1.62,0,3.56,0,5.18,0C127.94,96.82,129.95,100.04,130.01,103.3z
				 M120.71,107.61h2.71c2.99,0,4.18-2.18,4.12-4.33c-0.06-2.05-1.26-4.11-4.12-4.11h-2.71V107.61z"/>
			
				<linearGradient id="SVGID_00000112608908764157011960000011588252745712325025_" gradientUnits="userSpaceOnUse" x1="144.4082" y1="95.875" x2="144.4082" y2="112.3393">
				<stop  offset="0" style="stop-color:#2D9AF7"/>
				<stop  offset="0.0874" style="stop-color:#31A3F5"/>
				<stop  offset="0.2276" style="stop-color:#3CBAEF"/>
				<stop  offset="0.4022" style="stop-color:#4FE0E5"/>
				<stop  offset="0.5053" style="stop-color:#5BFADE"/>
				<stop  offset="0.6521" style="stop-color:#48D3E8"/>
				<stop  offset="0.7948" style="stop-color:#39B4F0"/>
				<stop  offset="0.9157" style="stop-color:#30A1F5"/>
				<stop  offset="1" style="stop-color:#2D9AF7"/>
			</linearGradient>
			<path style="fill:url(#SVGID_00000112608908764157011960000011588252745712325025_);" d="M143.17,110.01V96.82h2.47v13.18H143.17
				z"/>
			
				<linearGradient id="SVGID_00000049900054251593774970000011923647524457037455_" gradientUnits="userSpaceOnUse" x1="164.8611" y1="95.875" x2="164.8611" y2="112.3393">
				<stop  offset="0" style="stop-color:#2D9AF7"/>
				<stop  offset="0.0874" style="stop-color:#31A3F5"/>
				<stop  offset="0.2276" style="stop-color:#3CBAEF"/>
				<stop  offset="0.4022" style="stop-color:#4FE0E5"/>
				<stop  offset="0.5053" style="stop-color:#5BFADE"/>
				<stop  offset="0.6521" style="stop-color:#48D3E8"/>
				<stop  offset="0.7948" style="stop-color:#39B4F0"/>
				<stop  offset="0.9157" style="stop-color:#30A1F5"/>
				<stop  offset="1" style="stop-color:#2D9AF7"/>
			</linearGradient>
			<path style="fill:url(#SVGID_00000049900054251593774970000011923647524457037455_);" d="M169.07,100.04
				c-0.89-0.85-2.2-1.32-3.35-1.32c-2.82,0-4.54,2.15-4.54,4.86c0,2.17,1.26,4.41,4.54,4.41c1.04,0,1.94-0.23,2.98-1.05v-2.33h-3.37
				v-2.22h5.65v5.56c-1.3,1.49-2.94,2.37-5.25,2.37c-4.95,0-6.97-3.26-6.97-6.72c0-3.71,2.32-7.14,6.97-7.14
				c1.77,0,3.54,0.68,4.9,2.02L169.07,100.04z"/>
			
				<linearGradient id="SVGID_00000071528259897067152410000008385512742879415468_" gradientUnits="userSpaceOnUse" x1="185.5591" y1="95.875" x2="185.5591" y2="112.3393">
				<stop  offset="0" style="stop-color:#2D9AF7"/>
				<stop  offset="0.0874" style="stop-color:#31A3F5"/>
				<stop  offset="0.2276" style="stop-color:#3CBAEF"/>
				<stop  offset="0.4022" style="stop-color:#4FE0E5"/>
				<stop  offset="0.5053" style="stop-color:#5BFADE"/>
				<stop  offset="0.6521" style="stop-color:#48D3E8"/>
				<stop  offset="0.7948" style="stop-color:#39B4F0"/>
				<stop  offset="0.9157" style="stop-color:#30A1F5"/>
				<stop  offset="1" style="stop-color:#2D9AF7"/>
			</linearGradient>
			<path style="fill:url(#SVGID_00000071528259897067152410000008385512742879415468_);" d="M184.33,110.01V96.82h2.47v13.18H184.33
				z"/>
			
				<linearGradient id="SVGID_00000164515371427558622160000008388130113486362293_" gradientUnits="userSpaceOnUse" x1="205.6828" y1="95.875" x2="205.6828" y2="112.3393">
				<stop  offset="0" style="stop-color:#2D9AF7"/>
				<stop  offset="0.0874" style="stop-color:#31A3F5"/>
				<stop  offset="0.2276" style="stop-color:#3CBAEF"/>
				<stop  offset="0.4022" style="stop-color:#4FE0E5"/>
				<stop  offset="0.5053" style="stop-color:#5BFADE"/>
				<stop  offset="0.6521" style="stop-color:#48D3E8"/>
				<stop  offset="0.7948" style="stop-color:#39B4F0"/>
				<stop  offset="0.9157" style="stop-color:#30A1F5"/>
				<stop  offset="1" style="stop-color:#2D9AF7"/>
			</linearGradient>
			<path style="fill:url(#SVGID_00000164515371427558622160000008388130113486362293_);" d="M204.44,99.08h-4.18v-2.26
				c3.8,0,7.02,0,10.85,0v2.26h-4.18v10.92h-2.49V99.08z"/>
			
				<linearGradient id="SVGID_00000057146670659065593940000015807301989886916017_" gradientUnits="userSpaceOnUse" x1="229.8266" y1="95.875" x2="229.8266" y2="112.3393">
				<stop  offset="0" style="stop-color:#2D9AF7"/>
				<stop  offset="0.0874" style="stop-color:#31A3F5"/>
				<stop  offset="0.2276" style="stop-color:#3CBAEF"/>
				<stop  offset="0.4022" style="stop-color:#4FE0E5"/>
				<stop  offset="0.5053" style="stop-color:#5BFADE"/>
				<stop  offset="0.6521" style="stop-color:#48D3E8"/>
				<stop  offset="0.7948" style="stop-color:#39B4F0"/>
				<stop  offset="0.9157" style="stop-color:#30A1F5"/>
				<stop  offset="1" style="stop-color:#2D9AF7"/>
			</linearGradient>
			<path style="fill:url(#SVGID_00000057146670659065593940000015807301989886916017_);" d="M233.27,107.52h-6.89l-1.13,2.49h-2.69
				l5.91-13.18h2.71l5.91,13.18h-2.71L233.27,107.52z M229.83,99.59l-2.45,5.61h4.9L229.83,99.59z"/>
			
				<linearGradient id="SVGID_00000029736235183865717830000007074631166314427831_" gradientUnits="userSpaceOnUse" x1="254.348" y1="95.875" x2="254.348" y2="112.3393">
				<stop  offset="0" style="stop-color:#2D9AF7"/>
				<stop  offset="0.0874" style="stop-color:#31A3F5"/>
				<stop  offset="0.2276" style="stop-color:#3CBAEF"/>
				<stop  offset="0.4022" style="stop-color:#4FE0E5"/>
				<stop  offset="0.5053" style="stop-color:#5BFADE"/>
				<stop  offset="0.6521" style="stop-color:#48D3E8"/>
				<stop  offset="0.7948" style="stop-color:#39B4F0"/>
				<stop  offset="0.9157" style="stop-color:#30A1F5"/>
				<stop  offset="1" style="stop-color:#2D9AF7"/>
			</linearGradient>
			<path style="fill:url(#SVGID_00000029736235183865717830000007074631166314427831_);" d="M252.2,96.82v10.89h6.78v2.3h-9.27
				V96.82H252.2z"/>
			
				<linearGradient id="SVGID_00000049904518822694468210000003018328652703033509_" gradientUnits="userSpaceOnUse" x1="292.0335" y1="95.875" x2="292.0335" y2="112.3393">
				<stop  offset="0" style="stop-color:#2D9AF7"/>
				<stop  offset="0.0874" style="stop-color:#31A3F5"/>
				<stop  offset="0.2276" style="stop-color:#3CBAEF"/>
				<stop  offset="0.4022" style="stop-color:#4FE0E5"/>
				<stop  offset="0.5053" style="stop-color:#5BFADE"/>
				<stop  offset="0.6521" style="stop-color:#48D3E8"/>
				<stop  offset="0.7948" style="stop-color:#39B4F0"/>
				<stop  offset="0.9157" style="stop-color:#30A1F5"/>
				<stop  offset="1" style="stop-color:#2D9AF7"/>
			</linearGradient>
			<path style="fill:url(#SVGID_00000049904518822694468210000003018328652703033509_);" d="M296.97,110.01h-9.87
				c0-4.39,0-8.79,0-13.18h9.87v2.41h-7.4v3.03h7.14v2.32h-7.14v2.98h7.4V110.01z"/>
			
				<linearGradient id="SVGID_00000181075619898370701270000010728061872627486105_" gradientUnits="userSpaceOnUse" x1="316.2631" y1="95.875" x2="316.2631" y2="112.3393">
				<stop  offset="0" style="stop-color:#2D9AF7"/>
				<stop  offset="0.0874" style="stop-color:#31A3F5"/>
				<stop  offset="0.2276" style="stop-color:#3CBAEF"/>
				<stop  offset="0.4022" style="stop-color:#4FE0E5"/>
				<stop  offset="0.5053" style="stop-color:#5BFADE"/>
				<stop  offset="0.6521" style="stop-color:#48D3E8"/>
				<stop  offset="0.7948" style="stop-color:#39B4F0"/>
				<stop  offset="0.9157" style="stop-color:#30A1F5"/>
				<stop  offset="1" style="stop-color:#2D9AF7"/>
			</linearGradient>
			<path style="fill:url(#SVGID_00000181075619898370701270000010728061872627486105_);" d="M317.55,110.06h-2.58l-5.48-13.24h2.79
				l3.97,10.26l3.99-10.26h2.79L317.55,110.06z"/>
			
				<linearGradient id="SVGID_00000060719301691681475110000018071098456038532997_" gradientUnits="userSpaceOnUse" x1="342.0467" y1="95.875" x2="342.0467" y2="112.3393">
				<stop  offset="0" style="stop-color:#2D9AF7"/>
				<stop  offset="0.0874" style="stop-color:#31A3F5"/>
				<stop  offset="0.2276" style="stop-color:#3CBAEF"/>
				<stop  offset="0.4022" style="stop-color:#4FE0E5"/>
				<stop  offset="0.5053" style="stop-color:#5BFADE"/>
				<stop  offset="0.6521" style="stop-color:#48D3E8"/>
				<stop  offset="0.7948" style="stop-color:#39B4F0"/>
				<stop  offset="0.9157" style="stop-color:#30A1F5"/>
				<stop  offset="1" style="stop-color:#2D9AF7"/>
			</linearGradient>
			<path style="fill:url(#SVGID_00000060719301691681475110000018071098456038532997_);" d="M348.82,103.49
				c-0.04,3.41-2.13,6.82-6.76,6.82c-4.63,0-6.78-3.33-6.78-6.8c0-3.47,2.22-6.95,6.78-6.95
				C346.59,96.56,348.85,100.04,348.82,103.49z M337.72,103.55c0.06,2.17,1.22,4.48,4.33,4.48c3.11,0,4.28-2.34,4.31-4.5
				c0.04-2.22-1.21-4.71-4.31-4.71C338.95,98.82,337.67,101.32,337.72,103.55z"/>
			
				<linearGradient id="SVGID_00000045601643861090641350000001766615118381949341_" gradientUnits="userSpaceOnUse" x1="366.5763" y1="95.875" x2="366.5763" y2="112.3393">
				<stop  offset="0" style="stop-color:#2D9AF7"/>
				<stop  offset="0.0874" style="stop-color:#31A3F5"/>
				<stop  offset="0.2276" style="stop-color:#3CBAEF"/>
				<stop  offset="0.4022" style="stop-color:#4FE0E5"/>
				<stop  offset="0.5053" style="stop-color:#5BFADE"/>
				<stop  offset="0.6521" style="stop-color:#48D3E8"/>
				<stop  offset="0.7948" style="stop-color:#39B4F0"/>
				<stop  offset="0.9157" style="stop-color:#30A1F5"/>
				<stop  offset="1" style="stop-color:#2D9AF7"/>
			</linearGradient>
			<path style="fill:url(#SVGID_00000045601643861090641350000001766615118381949341_);" d="M364.43,96.82v10.89h6.78v2.3h-9.27
				V96.82H364.43z"/>
			
				<linearGradient id="SVGID_00000135676865427411747230000012889884096412409266_" gradientUnits="userSpaceOnUse" x1="389.2714" y1="95.875" x2="389.2714" y2="112.3393">
				<stop  offset="0" style="stop-color:#2D9AF7"/>
				<stop  offset="0.0874" style="stop-color:#31A3F5"/>
				<stop  offset="0.2276" style="stop-color:#3CBAEF"/>
				<stop  offset="0.4022" style="stop-color:#4FE0E5"/>
				<stop  offset="0.5053" style="stop-color:#5BFADE"/>
				<stop  offset="0.6521" style="stop-color:#48D3E8"/>
				<stop  offset="0.7948" style="stop-color:#39B4F0"/>
				<stop  offset="0.9157" style="stop-color:#30A1F5"/>
				<stop  offset="1" style="stop-color:#2D9AF7"/>
			</linearGradient>
			<path style="fill:url(#SVGID_00000135676865427411747230000012889884096412409266_);" d="M395.05,96.84v7.55
				c0,3.9-2.39,5.89-5.71,5.89c-3.16,0-5.86-1.92-5.86-5.89v-7.55h2.47v7.55c0,2.37,1.36,3.64,3.41,3.64c2.05,0,3.22-1.38,3.22-3.64
				v-7.55H395.05z"/>
			
				<linearGradient id="SVGID_00000022522389806281019430000014548540388483968180_" gradientUnits="userSpaceOnUse" x1="413.4344" y1="95.875" x2="413.4344" y2="112.3393">
				<stop  offset="0" style="stop-color:#2D9AF7"/>
				<stop  offset="0.0874" style="stop-color:#31A3F5"/>
				<stop  offset="0.2276" style="stop-color:#3CBAEF"/>
				<stop  offset="0.4022" style="stop-color:#4FE0E5"/>
				<stop  offset="0.5053" style="stop-color:#5BFADE"/>
				<stop  offset="0.6521" style="stop-color:#48D3E8"/>
				<stop  offset="0.7948" style="stop-color:#39B4F0"/>
				<stop  offset="0.9157" style="stop-color:#30A1F5"/>
				<stop  offset="1" style="stop-color:#2D9AF7"/>
			</linearGradient>
			<path style="fill:url(#SVGID_00000022522389806281019430000014548540388483968180_);" d="M412.19,99.08h-4.18v-2.26
				c3.8,0,7.02,0,10.85,0v2.26h-4.18v10.92h-2.49V99.08z"/>
			
				<linearGradient id="SVGID_00000175322834807742542740000013328118256102648726_" gradientUnits="userSpaceOnUse" x1="432.9179" y1="95.875" x2="432.9179" y2="112.3393">
				<stop  offset="0" style="stop-color:#2D9AF7"/>
				<stop  offset="0.0874" style="stop-color:#31A3F5"/>
				<stop  offset="0.2276" style="stop-color:#3CBAEF"/>
				<stop  offset="0.4022" style="stop-color:#4FE0E5"/>
				<stop  offset="0.5053" style="stop-color:#5BFADE"/>
				<stop  offset="0.6521" style="stop-color:#48D3E8"/>
				<stop  offset="0.7948" style="stop-color:#39B4F0"/>
				<stop  offset="0.9157" style="stop-color:#30A1F5"/>
				<stop  offset="1" style="stop-color:#2D9AF7"/>
			</linearGradient>
			<path style="fill:url(#SVGID_00000175322834807742542740000013328118256102648726_);" d="M431.68,110.01V96.82h2.47v13.18H431.68
				z"/>
			
				<linearGradient id="SVGID_00000024701123345675729130000010071188056842716340_" gradientUnits="userSpaceOnUse" x1="454.3692" y1="95.875" x2="454.3692" y2="112.3393">
				<stop  offset="0" style="stop-color:#2D9AF7"/>
				<stop  offset="0.0874" style="stop-color:#31A3F5"/>
				<stop  offset="0.2276" style="stop-color:#3CBAEF"/>
				<stop  offset="0.4022" style="stop-color:#4FE0E5"/>
				<stop  offset="0.5053" style="stop-color:#5BFADE"/>
				<stop  offset="0.6521" style="stop-color:#48D3E8"/>
				<stop  offset="0.7948" style="stop-color:#39B4F0"/>
				<stop  offset="0.9157" style="stop-color:#30A1F5"/>
				<stop  offset="1" style="stop-color:#2D9AF7"/>
			</linearGradient>
			<path style="fill:url(#SVGID_00000024701123345675729130000010071188056842716340_);" d="M461.14,103.49
				c-0.04,3.41-2.13,6.82-6.76,6.82c-4.63,0-6.78-3.33-6.78-6.8c0-3.47,2.22-6.95,6.78-6.95
				C458.92,96.56,461.18,100.04,461.14,103.49z M450.05,103.55c0.06,2.17,1.22,4.48,4.33,4.48c3.11,0,4.28-2.34,4.31-4.5
				c0.04-2.22-1.21-4.71-4.31-4.71C451.27,98.82,449.99,101.32,450.05,103.55z"/>
			
				<linearGradient id="SVGID_00000097488865279929685670000011451187721254699145_" gradientUnits="userSpaceOnUse" x1="479.9356" y1="95.875" x2="479.9356" y2="112.3393">
				<stop  offset="0" style="stop-color:#2D9AF7"/>
				<stop  offset="0.0874" style="stop-color:#31A3F5"/>
				<stop  offset="0.2276" style="stop-color:#3CBAEF"/>
				<stop  offset="0.4022" style="stop-color:#4FE0E5"/>
				<stop  offset="0.5053" style="stop-color:#5BFADE"/>
				<stop  offset="0.6521" style="stop-color:#48D3E8"/>
				<stop  offset="0.7948" style="stop-color:#39B4F0"/>
				<stop  offset="0.9157" style="stop-color:#30A1F5"/>
				<stop  offset="1" style="stop-color:#2D9AF7"/>
			</linearGradient>
			<path style="fill:url(#SVGID_00000097488865279929685670000011451187721254699145_);" d="M482.93,96.8h2.49v13.2h-1.54v0.02
				l-6.93-8.91v8.89h-2.49V96.82h2.02l6.46,8.17V96.8z"/>
		</g>
	</g>
	<g>
		<g>
			<g>
				
					<linearGradient id="SVGID_00000080927498670571214350000007491252980038181792_" gradientUnits="userSpaceOnUse" x1="47.8168" y1="-1.4305" x2="47.8168" y2="146.456">
					<stop  offset="0" style="stop-color:#2D9AF7"/>
					<stop  offset="0.0874" style="stop-color:#31A3F5"/>
					<stop  offset="0.2276" style="stop-color:#3CBAEF"/>
					<stop  offset="0.4022" style="stop-color:#4FE0E5"/>
					<stop  offset="0.5053" style="stop-color:#5BFADE"/>
					<stop  offset="0.6521" style="stop-color:#48D3E8"/>
					<stop  offset="0.7948" style="stop-color:#39B4F0"/>
					<stop  offset="0.9157" style="stop-color:#30A1F5"/>
					<stop  offset="1" style="stop-color:#2D9AF7"/>
				</linearGradient>
				<path style="fill:url(#SVGID_00000080927498670571214350000007491252980038181792_);" d="M88.46,20.48v86.59l-66.6-54
					l-1.67-1.36l-6.35-5.15v64.51c-1.04-0.33-2.15-0.53-3.33-0.53c-1.18,0-2.29,0.2-3.33,0.53V33.5l66.6,54l1.67,1.36l6.35,5.15
					V20.48c1.04,0.36,2.18,0.56,3.33,0.56C86.28,21.04,87.41,20.84,88.46,20.48z"/>
			</g>
		</g>
		<g>
			<g>
				
					<linearGradient id="SVGID_00000149345577693098911070000017491167914927424662_" gradientUnits="userSpaceOnUse" x1="85.1372" y1="-1.4305" x2="85.1372" y2="146.456">
					<stop  offset="0" style="stop-color:#2D9AF7"/>
					<stop  offset="0.0874" style="stop-color:#31A3F5"/>
					<stop  offset="0.2276" style="stop-color:#3CBAEF"/>
					<stop  offset="0.4022" style="stop-color:#4FE0E5"/>
					<stop  offset="0.5053" style="stop-color:#5BFADE"/>
					<stop  offset="0.6521" style="stop-color:#48D3E8"/>
					<stop  offset="0.7948" style="stop-color:#39B4F0"/>
					<stop  offset="0.9157" style="stop-color:#30A1F5"/>
					<stop  offset="1" style="stop-color:#2D9AF7"/>
				</linearGradient>
				<path style="fill:url(#SVGID_00000149345577693098911070000017491167914927424662_);" d="M85.13,0
					c-5.8,0-10.51,4.71-10.51,10.53c0,4.62,3,8.55,7.18,9.95c1.04,0.36,2.18,0.56,3.33,0.56c1.16,0,2.29-0.2,3.33-0.56
					c4.18-1.38,7.2-5.31,7.2-9.95C95.66,4.71,90.92,0,85.13,0z M85.13,14.37c-2.13,0-3.84-1.73-3.84-3.84
					c0-2.13,1.71-3.87,3.84-3.87c2.13,0,3.87,1.73,3.87,3.87C88.99,12.64,87.26,14.37,85.13,14.37z"/>
			</g>
		</g>
		<g>
			<g>
				
					<linearGradient id="SVGID_00000023281007214300164280000017984934408380746664_" gradientUnits="userSpaceOnUse" x1="10.5186" y1="-1.4305" x2="10.5186" y2="146.456">
					<stop  offset="0" style="stop-color:#2D9AF7"/>
					<stop  offset="0.0874" style="stop-color:#31A3F5"/>
					<stop  offset="0.2276" style="stop-color:#3CBAEF"/>
					<stop  offset="0.4022" style="stop-color:#4FE0E5"/>
					<stop  offset="0.5053" style="stop-color:#5BFADE"/>
					<stop  offset="0.6521" style="stop-color:#48D3E8"/>
					<stop  offset="0.7948" style="stop-color:#39B4F0"/>
					<stop  offset="0.9157" style="stop-color:#30A1F5"/>
					<stop  offset="1" style="stop-color:#2D9AF7"/>
				</linearGradient>
				<path style="fill:url(#SVGID_00000023281007214300164280000017984934408380746664_);" d="M13.84,111.07
					c-1.04-0.33-2.15-0.53-3.33-0.53c-1.18,0-2.29,0.2-3.33,0.53C3,112.47,0,116.4,0,121.05c0,5.8,4.71,10.53,10.51,10.53
					s10.53-4.73,10.53-10.53C21.04,116.4,18.02,112.47,13.84,111.07z M10.51,124.91c-2.11,0-3.84-1.73-3.84-3.87
					c0-2.11,1.73-3.84,3.84-3.84c2.13,0,3.87,1.73,3.87,3.84C14.37,123.18,12.64,124.91,10.51,124.91z"/>
			</g>
		</g>
		<g>
			<g>
				
					<linearGradient id="SVGID_00000163788456683521608770000003840341121409360536_" gradientUnits="userSpaceOnUse" x1="47.8122" y1="-1.4305" x2="47.8122" y2="146.456">
					<stop  offset="0" style="stop-color:#2D9AF7"/>
					<stop  offset="0.0874" style="stop-color:#31A3F5"/>
					<stop  offset="0.2276" style="stop-color:#3CBAEF"/>
					<stop  offset="0.4022" style="stop-color:#4FE0E5"/>
					<stop  offset="0.5053" style="stop-color:#5BFADE"/>
					<stop  offset="0.6521" style="stop-color:#48D3E8"/>
					<stop  offset="0.7948" style="stop-color:#39B4F0"/>
					<stop  offset="0.9157" style="stop-color:#30A1F5"/>
					<stop  offset="1" style="stop-color:#2D9AF7"/>
				</linearGradient>
				
					<rect x="44.48" y="28.95" style="fill:url(#SVGID_00000163788456683521608770000003840341121409360536_);" width="6.66" height="9.02"/>
			</g>
			<g>
				
					<linearGradient id="SVGID_00000058555922403420384280000004846853387300584605_" gradientUnits="userSpaceOnUse" x1="47.8122" y1="-1.4305" x2="47.8122" y2="146.456">
					<stop  offset="0" style="stop-color:#2D9AF7"/>
					<stop  offset="0.0874" style="stop-color:#31A3F5"/>
					<stop  offset="0.2276" style="stop-color:#3CBAEF"/>
					<stop  offset="0.4022" style="stop-color:#4FE0E5"/>
					<stop  offset="0.5053" style="stop-color:#5BFADE"/>
					<stop  offset="0.6521" style="stop-color:#48D3E8"/>
					<stop  offset="0.7948" style="stop-color:#39B4F0"/>
					<stop  offset="0.9157" style="stop-color:#30A1F5"/>
					<stop  offset="1" style="stop-color:#2D9AF7"/>
				</linearGradient>
				<polygon style="fill:url(#SVGID_00000058555922403420384280000004846853387300584605_);" points="51.14,43.12 51.14,63.8 
					44.48,58.41 44.48,43.12 				"/>
			</g>
			<g>
				
					<linearGradient id="SVGID_00000080914155765295518960000015122778885384108429_" gradientUnits="userSpaceOnUse" x1="47.8122" y1="-1.4305" x2="47.8122" y2="146.456">
					<stop  offset="0" style="stop-color:#2D9AF7"/>
					<stop  offset="0.0874" style="stop-color:#31A3F5"/>
					<stop  offset="0.2276" style="stop-color:#3CBAEF"/>
					<stop  offset="0.4022" style="stop-color:#4FE0E5"/>
					<stop  offset="0.5053" style="stop-color:#5BFADE"/>
					<stop  offset="0.6521" style="stop-color:#48D3E8"/>
					<stop  offset="0.7948" style="stop-color:#39B4F0"/>
					<stop  offset="0.9157" style="stop-color:#30A1F5"/>
					<stop  offset="1" style="stop-color:#2D9AF7"/>
				</linearGradient>
				<polygon style="fill:url(#SVGID_00000080914155765295518960000015122778885384108429_);" points="51.14,82.13 51.14,107.08 
					44.48,107.08 44.48,76.73 				"/>
			</g>
		</g>
		<g>
			
				<linearGradient id="SVGID_00000013882319974520656600000007125623423221294249_" gradientUnits="userSpaceOnUse" x1="21.026" y1="-1.4305" x2="21.026" y2="146.456">
				<stop  offset="0" style="stop-color:#2D9AF7"/>
				<stop  offset="0.0874" style="stop-color:#31A3F5"/>
				<stop  offset="0.2276" style="stop-color:#3CBAEF"/>
				<stop  offset="0.4022" style="stop-color:#4FE0E5"/>
				<stop  offset="0.5053" style="stop-color:#5BFADE"/>
				<stop  offset="0.6521" style="stop-color:#48D3E8"/>
				<stop  offset="0.7948" style="stop-color:#39B4F0"/>
				<stop  offset="0.9157" style="stop-color:#30A1F5"/>
				<stop  offset="1" style="stop-color:#2D9AF7"/>
			</linearGradient>
			<path style="fill:url(#SVGID_00000013882319974520656600000007125623423221294249_);" d="M21.86,53.07v58.34
				c-0.51-0.44-1.07-0.89-1.67-1.29v-58.4L21.86,53.07z"/>
		</g>
		<g>
			
				<linearGradient id="SVGID_00000023261514890452981390000003925072857234542995_" gradientUnits="userSpaceOnUse" x1="74.6075" y1="-1.4305" x2="74.6075" y2="146.456">
				<stop  offset="0" style="stop-color:#2D9AF7"/>
				<stop  offset="0.0874" style="stop-color:#31A3F5"/>
				<stop  offset="0.2276" style="stop-color:#3CBAEF"/>
				<stop  offset="0.4022" style="stop-color:#4FE0E5"/>
				<stop  offset="0.5053" style="stop-color:#5BFADE"/>
				<stop  offset="0.6521" style="stop-color:#48D3E8"/>
				<stop  offset="0.7948" style="stop-color:#39B4F0"/>
				<stop  offset="0.9157" style="stop-color:#30A1F5"/>
				<stop  offset="1" style="stop-color:#2D9AF7"/>
			</linearGradient>
			<path style="fill:url(#SVGID_00000023261514890452981390000003925072857234542995_);" d="M75.44,21.48v67.38l-1.67-1.36V20.17
				C74.31,20.64,74.86,21.06,75.44,21.48z"/>
		</g>
		<g>
			
				<linearGradient id="SVGID_00000121264537580496005230000002136311267006919579_" gradientUnits="userSpaceOnUse" x1="55.3319" y1="-1.4305" x2="55.3319" y2="146.456">
				<stop  offset="0" style="stop-color:#2D9AF7"/>
				<stop  offset="0.0874" style="stop-color:#31A3F5"/>
				<stop  offset="0.2276" style="stop-color:#3CBAEF"/>
				<stop  offset="0.4022" style="stop-color:#4FE0E5"/>
				<stop  offset="0.5053" style="stop-color:#5BFADE"/>
				<stop  offset="0.6521" style="stop-color:#48D3E8"/>
				<stop  offset="0.7948" style="stop-color:#39B4F0"/>
				<stop  offset="0.9157" style="stop-color:#30A1F5"/>
				<stop  offset="1" style="stop-color:#2D9AF7"/>
			</linearGradient>
			<polygon style="fill:url(#SVGID_00000121264537580496005230000002136311267006919579_);" points="56.16,43.12 56.16,67.89 
				54.5,66.54 54.5,43.12 			"/>
			
				<linearGradient id="SVGID_00000005977091701542693400000017143963415086484363_" gradientUnits="userSpaceOnUse" x1="55.3319" y1="-1.4305" x2="55.3319" y2="146.456">
				<stop  offset="0" style="stop-color:#2D9AF7"/>
				<stop  offset="0.0874" style="stop-color:#31A3F5"/>
				<stop  offset="0.2276" style="stop-color:#3CBAEF"/>
				<stop  offset="0.4022" style="stop-color:#4FE0E5"/>
				<stop  offset="0.5053" style="stop-color:#5BFADE"/>
				<stop  offset="0.6521" style="stop-color:#48D3E8"/>
				<stop  offset="0.7948" style="stop-color:#39B4F0"/>
				<stop  offset="0.9157" style="stop-color:#30A1F5"/>
				<stop  offset="1" style="stop-color:#2D9AF7"/>
			</linearGradient>
			<polygon style="fill:url(#SVGID_00000005977091701542693400000017143963415086484363_);" points="54.5,84.86 56.16,86.22 
				56.16,107.08 54.5,107.08 			"/>
		</g>
		<g>
			
				<linearGradient id="SVGID_00000069390594209685415910000011034764647748833934_" gradientUnits="userSpaceOnUse" x1="55.3362" y1="-1.4305" x2="55.3362" y2="146.456">
				<stop  offset="0" style="stop-color:#2D9AF7"/>
				<stop  offset="0.0874" style="stop-color:#31A3F5"/>
				<stop  offset="0.2276" style="stop-color:#3CBAEF"/>
				<stop  offset="0.4022" style="stop-color:#4FE0E5"/>
				<stop  offset="0.5053" style="stop-color:#5BFADE"/>
				<stop  offset="0.6521" style="stop-color:#48D3E8"/>
				<stop  offset="0.7948" style="stop-color:#39B4F0"/>
				<stop  offset="0.9157" style="stop-color:#30A1F5"/>
				<stop  offset="1" style="stop-color:#2D9AF7"/>
			</linearGradient>
			
				<rect x="54.5" y="28.95" style="fill:url(#SVGID_00000069390594209685415910000011034764647748833934_);" width="1.67" height="9.02"/>
		</g>
	</g>
</g>
</svg>
